<svg xmlns="http://www.w3.org/2000/svg" viewBox="0 0 512 512" role="img" aria-label="Smart Workspace favicon">
  <defs>
    <linearGradient id="bg" x1="80" y1="60" x2="430" y2="450" gradientUnits="userSpaceOnUse">
      <stop offset="0" stop-color="#0A1624"/>
      <stop offset="1" stop-color="#15293B"/>
    </linearGradient>
    <filter id="shadow" x="-20%" y="-20%" width="140%" height="140%">
      <feDropShadow dx="0" dy="8" stdDeviation="10" flood-color="#000000" flood-opacity="0.28"/>
    </filter>
  </defs>
  <rect x="28" y="28" width="456" height="456" rx="112" fill="url(#bg)" filter="url(#shadow)"/>
  <g fill="none" stroke="#7ED3A0" stroke-width="12" stroke-linecap="round" stroke-linejoin="round">
    <rect x="161" y="109" width="190" height="101" rx="20"/>
    <path d="M256 213v29M213 246h86"/>
    <path d="M138 403h236M182 403l-18 38M330 403l18 38" stroke-width="13"/>
    <path d="M150 444h52M310 444h52" stroke="#3D8F70" stroke-width="8"/>
  </g>
  <g fill="#7ED3A0">
    <circle cx="323.5" cy="138.5" r="10.5"/>
    <rect x="320" y="112" width="5" height="12" rx="2.5"/>
    <rect x="320" y="154" width="5" height="12" rx="2.5"/>
    <rect x="300" y="136" width="12" height="5" rx="2.5"/>
    <rect x="336" y="136" width="12" height="5" rx="2.5"/>
  </g>
  <text x="256" y="346" text-anchor="middle" font-family="Inter, Segoe UI, Arial, sans-serif" font-size="158" font-weight="800" fill="#F5FAFF">SW</text>
</svg>